{"title":"Everest (2015) - HDTS - x264 - Dual Audio (Hindi - English) - AC","uid":12607046,"size":731431572,"categoryP":"video","categoryS":"movies","magnet":"?xt=urn:btih:28beb5fd3a4227bba64ff413d78222b136c3f86b&amp;dn=Everest+%282015%29+-+HDTS+-+x264+-+Dual+Audio+%28Hindi+-+English%29+-+AC&amp;tr=udp%3A%2F%2Ftracker.leechers-paradise.org%3A6969&amp;tr=udp%3A%2F%2Fzer0day.ch%3A1337&amp;tr=udp%3A%2F%2Fopen.demonii.com%3A1337&amp;tr=udp%3A%2F%2Ftracker.coppersurfer.tk%3A6969&amp;tr=udp%3A%2F%2Fexodus.desync.com%3A6969","seeders":9,"leechers":2,"uploader":"makintos13","files":1,"time":1445405963,"description":"http://imgmak.com/image/20\r\n \nhttp://imgmak.com/image/2A\r\n \nhttp://imgmak.com/image/2D\r\n \nhttp://imgmak.com/image/2E\r\n \nhttp://imgmak.com/image/2V\r\n\r\n:::::::::::\r\n\r\n\r\nFormat : Matroska\r\nFormat version : Version 2\r\nFile size : 698 MiB\r\nSource : Dr Star\r\nDuration : 1h 49mn\r\nOverall bit rate : 891 Kbps\r\n\r\nFormat : AVC\r\nFormat/Info : Advanced Video Codec\r\nFormat profile :   \r\nFormat settings, CABAC : Yes\r\nFormat settings, ReFrames : 8 frames\r\nCodec ID : V_MPEG4/ISO/AVC\r\nDuration : 1h 49mn\r\nBit rate : 105 Kbps\r\nNominal bit rate : 121 Kbps\r\nWidth : 720 pixels\r\nHeight : 340 pixels\r\n\r\nAudio #1\r\nID : 2\r\nFormat : AC-3\r\nFormat/Info : Audio Coding 3\r\nMode extension : CM (complete main)\r\nFormat settings, Endianness : Big\r\nCodec ID : A_AC3\r\nDuration : 1h 49mn\r\nBit rate mode : Constant\r\nBit rate : 384 Kbps\r\nChannel(s) : 2 channels\r\nChannel positions : Front: L R\r\nSampling rate : 48.0 KHz\r\nCompression mode : Lossy\r\nStream size : 301 MiB (43%)\r\nLanguage : English\r\nDefault : Yes\r\n\r\nAudio #2\r\nID : 3\r\nFormat : AC-3\r\nFormat/Info : Audio Coding 3\r\nMode extension : CM (complete main)\r\nFormat settings, Endianness : Big\r\nCodec ID : A_AC3\r\nDuration : 1h 49mn\r\nBit rate mode : Constant\r\nBit rate : 384 Kbps\r\nChannel(s) : 2 channels\r\nChannel positions : Front: L R\r\nSampling rate : 48.0 KHz\r\nCompression mode : Lossy\r\nStream size : 301 MiB (43%)\r\nLanguage : Hindi","torrent":{"xt":"urn:btih:28beb5fd3a4227bba64ff413d78222b136c3f86b","amp;dn":"Everest+%282015%29+-+HDTS+-+x264+-+Dual+Audio+%28Hindi+-+English%29+-+AC","amp;tr":["udp%3A%2F%2Ftracker.leechers-paradise.org%3A6969","udp%3A%2F%2Fzer0day.ch%3A1337","udp%3A%2F%2Fopen.demonii.com%3A1337","udp%3A%2F%2Ftracker.coppersurfer.tk%3A6969","udp%3A%2F%2Fexodus.desync.com%3A6969"],"infoHash":"28beb5fd3a4227bba64ff413d78222b136c3f86b","infoHashBuffer":{"type":"Buffer","data":[40,190,181,253,58,66,39,187,166,79,244,19,215,130,34,177,54,195,248,107]},"announce":[],"urlList":[]}}